<svg width="24" height="24" viewBox="0 0 24 24" fill="none" xmlns="http://www.w3.org/2000/svg">
<path d="M5.33333 8H3.11111M5.33333 16C5.33333 16 3.97894 16 3.11111 16M5.33333 12H2M6.44444 3.68394C8.03344 2.6203 9.94428 2 12 2C17.5228 2 22 6.47715 22 12C22 17.5228 17.5228 22 12 22C9.94428 22 8.03344 21.3797 6.44444 20.3161" stroke="#B3B3B3" stroke-width="2" stroke-linecap="round" stroke-linejoin="round"/>
<path d="M12 15.333V15.6663V15.9997" stroke="#B3B3B3" stroke-width="1.5" stroke-linecap="round"/>
<path d="M12 8V8.33333V8.66667" stroke="#B3B3B3" stroke-width="1.5" stroke-linecap="round"/>
<path d="M14 10.3337C14 9.41318 13.1046 8.66699 12 8.66699C10.8954 8.66699 10 9.41318 10 10.3337C10 11.2541 10.8954 12.0003 12 12.0003C13.1046 12.0003 14 12.7465 14 13.667C14 14.5875 13.1046 15.3337 12 15.3337C10.8954 15.3337 10 14.5875 10 13.667" stroke="#B3B3B3" stroke-width="1.5" stroke-linecap="round"/>
</svg>
